<?xml version="1.0" standalone="no"?>
<!DOCTYPE svg PUBLIC "-//W3C//DTD SVG 20010904//EN"
 "http://www.w3.org/TR/2001/REC-SVG-20010904/DTD/svg10.dtd">
<svg version="1.0" xmlns="http://www.w3.org/2000/svg"
 width="650.000000pt" height="650.000000pt" viewBox="0 0 650.000000 650.000000"
 preserveAspectRatio="xMidYMid meet">
<metadata>
Created by potrace 1.14, written by Peter Selinger 2001-2017
</metadata>
<g transform="translate(0.000000,650.000000) scale(0.100000,-0.100000)"
fill="#000000" stroke="none">
<path d="M0 3250 l0 -3250 3250 0 3250 0 0 3250 0 3250 -3250 0 -3250 0 0
-3250z m4955 1698 c-3 -7 -52 -191 -110 -408 -58 -217 -108 -401 -111 -409 -3
-10 -47 27 -134 114 l-130 130 -111 -111 -111 -111 54 -74 c152 -205 244 -434
278 -686 19 -140 8 -390 -23 -523 -65 -278 -191 -504 -392 -706 -217 -217
-468 -348 -770 -400 -114 -20 -404 -14 -510 10 -243 55 -410 140 -652 330
l-24 19 -185 -184 -184 -184 -47 48 -48 47 183 183 c100 100 182 187 182 193
0 6 -9 19 -20 29 -67 61 -203 301 -258 456 -61 174 -77 273 -77 489 1 163 5
212 23 297 96 440 376 809 762 1003 121 61 210 92 341 122 138 31 426 33 559
5 243 -52 458 -157 646 -316 l71 -59 109 109 109 109 -130 130 c-90 90 -124
131 -114 135 8 3 197 54 419 114 223 60 406 109 407 110 1 1 0 -5 -2 -11z"/>
<path d="M3025 4559 c-438 -52 -824 -320 -1035 -720 -103 -196 -152 -401 -153
-634 0 -240 47 -437 153 -644 47 -92 154 -250 180 -266 11 -7 90 60 90 75 0 4
-24 38 -53 76 -64 83 -116 168 -151 247 -233 530 -73 1147 389 1495 95 72 289
166 405 197 378 100 776 18 1077 -222 37 -29 72 -53 78 -53 6 0 29 18 50 41
l40 40 -35 30 c-140 120 -304 218 -458 273 -162 58 -406 85 -577 65z"/>
<path d="M4141 4046 l-42 -43 55 -74 c65 -87 146 -243 180 -349 55 -174 72
-414 40 -595 -86 -499 -478 -897 -979 -996 -44 -9 -132 -14 -235 -13 -178 0
-268 15 -415 71 -129 48 -274 132 -348 201 l-28 26 -46 -46 -46 -47 33 -28
c175 -150 390 -254 618 -300 121 -24 375 -24 491 1 270 58 494 178 682 365
331 331 469 787 379 1252 -24 128 -61 232 -127 361 -43 85 -155 258 -167 258
-1 0 -21 -20 -45 -44z"/>
</g>
</svg>
