<?xml version="1.0" encoding="UTF-8" standalone="no"?>
<!-- Created with Inkscape (http://www.inkscape.org/) -->

<svg
   width="183.85878mm"
   height="170.63019mm"
   viewBox="0 0 183.85879 170.63018"
   version="1.1"
   id="svg5"
   xmlns="http://www.w3.org/2000/svg"
   xmlns:svg="http://www.w3.org/2000/svg">
  <defs
     id="defs2">
    <marker
       style="overflow:visible"
       id="marker1959"
       refX="0"
       refY="0"
       orient="auto-start-reverse"
       markerWidth="5.3244081"
       markerHeight="6.155385"
       viewBox="0 0 5.3244081 6.1553851"
       preserveAspectRatio="xMidYMid">
      <path
         transform="scale(0.5)"
         style="fill:context-stroke;fill-rule:evenodd;stroke:context-stroke;stroke-width:1pt"
         d="M 5.77,0 -2.88,5 V -5 Z"
         id="path1957" />
    </marker>
    <marker
       style="overflow:visible"
       id="TriangleStart"
       refX="0"
       refY="0"
       orient="auto-start-reverse"
       markerWidth="5.3244081"
       markerHeight="6.155385"
       viewBox="0 0 5.3244081 6.1553851"
       preserveAspectRatio="xMidYMid">
      <path
         transform="scale(0.5)"
         style="fill:context-stroke;fill-rule:evenodd;stroke:context-stroke;stroke-width:1pt"
         d="M 5.77,0 -2.88,5 V -5 Z"
         id="path135" />
    </marker>
  </defs>
  <g
     id="layer1"
     transform="translate(5.9382489,-60.838455)">
    <circle
       style="fill:#ffffff;fill-opacity:0.403084;stroke:#000000;stroke-width:0.8;stroke-linejoin:round;stroke-miterlimit:4;stroke-dasharray:none;stroke-dashoffset:0;stroke-opacity:1"
       id="path111"
       cx="93.656082"
       cy="146.26981"
       r="55.49699" />
    <path
       style="fill:none;stroke:#000000;stroke-width:1.004;stroke-linecap:butt;stroke-linejoin:miter;stroke-dasharray:none;stroke-opacity:1;marker-start:url(#marker1959);marker-end:url(#marker1959)"
       d="M 93.65608,79.476959 V 213.06265"
       id="path176" />
    <path
       style="fill:none;stroke:#000000;stroke-width:1.004;stroke-linecap:butt;stroke-linejoin:miter;stroke-dasharray:none;stroke-opacity:1;marker-start:url(#TriangleStart);marker-end:url(#marker1959)"
       d="M 115.92223,130.41637 72.420144,161.38974"
       id="path180" />
    <g
       id="g2171"
       transform="matrix(0.95591046,0,0,0.95591843,4.1292537,6.4478027)"
       style="stroke-width:1.05031;stroke-dasharray:none">
      <path
         style="fill:none;stroke:#000000;stroke-width:1.05031;stroke-linecap:butt;stroke-linejoin:miter;stroke-dasharray:none;stroke-opacity:1;marker-start:url(#marker1959)"
         d="M 162.58948,146.2698 H 92.716526"
         id="path292" />
      <path
         style="fill:none;stroke:#000000;stroke-width:1.05031;stroke-linecap:butt;stroke-linejoin:miter;stroke-dasharray:none;stroke-opacity:1;marker-start:url(#marker1959)"
         d="M 24.72268,146.2698 H 94.595634"
         id="path294" />
    </g>
    <g
       transform="matrix(2,0,0,2,88.0015,60.838378)"
       id="g324"
       style="stroke-width:0.5">
      <g
         id="surface1"
         transform="matrix(0.705556,0,0,0.705556,-65.696,-52.5488)"
         style="stroke-width:0.5">
        <g
           style="fill:#000000;fill-opacity:1;stroke-width:0.5"
           id="g23">
          <g
             id="use21"
             transform="translate(91.925003,81.962997)"
             style="stroke-width:0.5">
            <path
               style="stroke:none;stroke-width:0.5"
               d="m 1.578125,-7.125 c 0,-0.171875 0,-0.359375 -0.1875,-0.359375 -0.203125,0 -0.203125,0.1875 -0.203125,0.359375 v 9.265625 c 0,0.171875 0,0.359375 0.203125,0.359375 0.1875,0 0.1875,-0.1875 0.1875,-0.359375 z m 0,0"
               id="path38" />
          </g>
        </g>
        <g
           style="fill:#000000;fill-opacity:1;stroke-width:0.5"
           id="g27">
          <g
             id="use25"
             transform="translate(94.693001,81.962997)"
             style="stroke-width:0.5">
            <path
               style="stroke:none;stroke-width:0.5"
               d="m 4.578125,-3.1875 c 0,-0.796875 -0.046875,-1.59375 -0.390625,-2.328125 -0.453125,-0.96875 -1.28125,-1.125 -1.6875,-1.125 -0.609375,0 -1.328125,0.265625 -1.75,1.1875 -0.3125,0.6875 -0.359375,1.46875 -0.359375,2.265625 0,0.75 0.03125,1.640625 0.453125,2.40625 0.421875,0.796875 1.15625,1 1.640625,1 0.53125,0 1.296875,-0.203125 1.734375,-1.15625 0.3125,-0.6875 0.359375,-1.46875 0.359375,-2.25 z M 2.484375,0 C 2.09375,0 1.5,-0.25 1.328125,-1.203125 1.21875,-1.796875 1.21875,-2.71875 1.21875,-3.3125 c 0,-0.640625 0,-1.296875 0.078125,-1.828125 0.1875,-1.1875 0.9375,-1.28125 1.1875,-1.28125 0.328125,0 0.984375,0.1875 1.171875,1.171875 0.109375,0.5625 0.109375,1.3125 0.109375,1.9375 0,0.75 0,1.421875 -0.109375,2.0625 C 3.5,-0.296875 2.9375,0 2.484375,0 Z m 0,0"
               id="path42" />
          </g>
        </g>
        <g
           style="fill:#000000;fill-opacity:1;stroke-width:0.5"
           id="g31">
          <g
             id="use29"
             transform="translate(99.674004,81.962997)"
             style="stroke-width:0.5">
            <path
               style="stroke:none;stroke-width:0.5"
               d="M 2.71875,-2.328125 C 2.765625,-2.4375 2.765625,-2.46875 2.765625,-2.5 c 0,-0.015625 0,-0.046875 -0.046875,-0.15625 L 0.984375,-7.25 c -0.0625,-0.171875 -0.125,-0.234375 -0.234375,-0.234375 -0.109375,0 -0.203125,0.09375 -0.203125,0.203125 0,0.03125 0,0.046875 0.046875,0.15625 L 2.359375,-2.5 0.59375,2.109375 C 0.546875,2.21875 0.546875,2.25 0.546875,2.296875 0.546875,2.40625 0.640625,2.5 0.75,2.5 0.875,2.5 0.921875,2.390625 0.953125,2.296875 Z m 0,0"
               id="path46" />
          </g>
        </g>
      </g>
    </g>
    <g
       transform="matrix(2,0,0,2,87.889405,217.3795)"
       id="g399"
       style="stroke-width:0.5">
      <g
         id="g397"
         transform="matrix(0.705556,0,0,0.705556,-65.696,-52.5488)"
         style="stroke-width:0.5">
        <g
           style="fill:#000000;fill-opacity:1;stroke-width:0.5"
           id="g383">
          <g
             id="g381"
             transform="translate(91.925003,81.962997)"
             style="stroke-width:0.5">
            <path
               style="stroke:none;stroke-width:0.5"
               d="m 1.578125,-7.125 c 0,-0.171875 0,-0.359375 -0.1875,-0.359375 -0.203125,0 -0.203125,0.1875 -0.203125,0.359375 v 9.265625 c 0,0.171875 0,0.359375 0.203125,0.359375 0.1875,0 0.1875,-0.1875 0.1875,-0.359375 z m 0,0"
               id="path379" />
          </g>
        </g>
        <g
           style="fill:#000000;fill-opacity:1;stroke-width:0.5"
           id="g389">
          <g
             id="g387"
             transform="translate(94.693001,81.962997)"
             style="stroke-width:0.5">
            <path
               style="stroke:none;stroke-width:0.5"
               d="m 2.9375,-6.375 c 0,-0.25 0,-0.265625 -0.234375,-0.265625 C 2.078125,-6 1.203125,-6 0.890625,-6 v 0.3125 c 0.203125,0 0.78125,0 1.296875,-0.265625 v 5.171875 c 0,0.359375 -0.03125,0.46875 -0.921875,0.46875 h -0.3125 V 0 c 0.34375,-0.03125 1.203125,-0.03125 1.609375,-0.03125 0.390625,0 1.265625,0 1.609375,0.03125 v -0.3125 h -0.3125 c -0.90625,0 -0.921875,-0.109375 -0.921875,-0.46875 z m 0,0"
               id="path385" />
          </g>
        </g>
        <g
           style="fill:#000000;fill-opacity:1;stroke-width:0.5"
           id="g395">
          <g
             id="g393"
             transform="translate(99.674004,81.962997)"
             style="stroke-width:0.5">
            <path
               style="stroke:none;stroke-width:0.5"
               d="M 2.71875,-2.328125 C 2.765625,-2.4375 2.765625,-2.46875 2.765625,-2.5 c 0,-0.015625 0,-0.046875 -0.046875,-0.15625 L 0.984375,-7.25 c -0.0625,-0.171875 -0.125,-0.234375 -0.234375,-0.234375 -0.109375,0 -0.203125,0.09375 -0.203125,0.203125 0,0.03125 0,0.046875 0.046875,0.15625 L 2.359375,-2.5 0.59375,2.109375 C 0.546875,2.21875 0.546875,2.25 0.546875,2.296875 0.546875,2.40625 0.640625,2.5 0.75,2.5 0.875,2.5 0.921875,2.390625 0.953125,2.296875 Z m 0,0"
               id="path391" />
          </g>
        </g>
      </g>
    </g>
    <g
       transform="matrix(2,0,0,2,53.651975,163.44004)"
       id="g496"
       style="stroke-width:0.5">
      <g
         id="g494"
         transform="matrix(0.705556,0,0,0.705556,-65.696,-52.5488)"
         style="stroke-width:0.5">
        <g
           style="fill:#000000;fill-opacity:1;stroke-width:0.5"
           id="g480">
          <g
             id="g478"
             transform="translate(91.925003,81.962997)"
             style="stroke-width:0.5">
            <path
               style="stroke:none;stroke-width:0.5"
               d="m 1.578125,-7.125 c 0,-0.171875 0,-0.359375 -0.1875,-0.359375 -0.203125,0 -0.203125,0.1875 -0.203125,0.359375 v 9.265625 c 0,0.171875 0,0.359375 0.203125,0.359375 0.1875,0 0.1875,-0.1875 0.1875,-0.359375 z m 0,0"
               id="path476" />
          </g>
        </g>
        <g
           style="fill:#000000;fill-opacity:1;stroke-width:0.5"
           id="g486">
          <g
             id="g484"
             transform="translate(94.693001,81.962997)"
             style="stroke-width:0.5">
            <path
               style="stroke:none;stroke-width:0.5"
               d="m 4.078125,-2.296875 h 2.78125 C 7,-2.296875 7.1875,-2.296875 7.1875,-2.5 7.1875,-2.6875 7,-2.6875 6.859375,-2.6875 h -2.78125 v -2.796875 c 0,-0.140625 0,-0.328125 -0.203125,-0.328125 -0.203125,0 -0.203125,0.1875 -0.203125,0.328125 V -2.6875 h -2.78125 c -0.140625,0 -0.328125,0 -0.328125,0.1875 0,0.203125 0.1875,0.203125 0.328125,0.203125 h 2.78125 V 0.5 c 0,0.140625 0,0.328125 0.203125,0.328125 0.203125,0 0.203125,-0.1875 0.203125,-0.328125 z m 0,0"
               id="path482" />
          </g>
        </g>
        <g
           style="fill:#000000;fill-opacity:1;stroke-width:0.5"
           id="g492">
          <g
             id="g490"
             transform="translate(102.441,81.962997)"
             style="stroke-width:0.5">
            <path
               style="stroke:none;stroke-width:0.5"
               d="M 2.71875,-2.328125 C 2.765625,-2.4375 2.765625,-2.46875 2.765625,-2.5 c 0,-0.015625 0,-0.046875 -0.046875,-0.15625 L 0.984375,-7.25 c -0.0625,-0.171875 -0.125,-0.234375 -0.234375,-0.234375 -0.109375,0 -0.203125,0.09375 -0.203125,0.203125 0,0.03125 0,0.046875 0.046875,0.15625 L 2.359375,-2.5 0.59375,2.109375 C 0.546875,2.21875 0.546875,2.25 0.546875,2.296875 0.546875,2.40625 0.640625,2.5 0.75,2.5 0.875,2.5 0.921875,2.390625 0.953125,2.296875 Z m 0,0"
               id="path488" />
          </g>
        </g>
      </g>
    </g>
    <g
       transform="matrix(2,0,0,2,119.40312,113.78287)"
       id="g604"
       style="stroke-width:0.5">
      <g
         id="g602"
         transform="matrix(0.705556,0,0,0.705556,-65.696,-52.5488)"
         style="stroke-width:0.5">
        <g
           style="fill:#000000;fill-opacity:1;stroke-width:0.5"
           id="g24">
          <g
             id="use18"
             transform="translate(91.925003,81.962997)"
             style="stroke-width:0.5">
            <path
               style="stroke:none;stroke-width:0.5"
               d="m 1.578125,-7.125 c 0,-0.171875 0,-0.359375 -0.1875,-0.359375 -0.203125,0 -0.203125,0.1875 -0.203125,0.359375 v 9.265625 c 0,0.171875 0,0.359375 0.203125,0.359375 0.1875,0 0.1875,-0.1875 0.1875,-0.359375 z m 0,0"
               id="path31" />
          </g>
          <g
             id="use20"
             transform="translate(94.692612,81.962997)"
             style="stroke-width:0.5">
            <path
               style="stroke:none;stroke-width:0.5"
               d="m 6.5625,-2.296875 c 0.171875,0 0.359375,0 0.359375,-0.203125 0,-0.1875 -0.1875,-0.1875 -0.359375,-0.1875 H 1.171875 c -0.171875,0 -0.34375,0 -0.34375,0.1875 0,0.203125 0.171875,0.203125 0.34375,0.203125 z m 0,0"
               id="path35" />
          </g>
          <g
             id="use22"
             transform="translate(102.44152,81.962997)"
             style="stroke-width:0.5">
            <path
               style="stroke:none;stroke-width:0.5"
               d="M 2.71875,-2.328125 C 2.765625,-2.4375 2.765625,-2.46875 2.765625,-2.5 c 0,-0.015625 0,-0.046875 -0.046875,-0.15625 L 0.984375,-7.25 c -0.0625,-0.171875 -0.125,-0.234375 -0.234375,-0.234375 -0.109375,0 -0.203125,0.09375 -0.203125,0.203125 0,0.03125 0,0.046875 0.046875,0.15625 L 2.359375,-2.5 0.59375,2.109375 C 0.546875,2.21875 0.546875,2.25 0.546875,2.296875 0.546875,2.40625 0.640625,2.5 0.75,2.5 0.875,2.5 0.921875,2.390625 0.953125,2.296875 Z m 0,0"
               id="path39" />
          </g>
        </g>
      </g>
    </g>
    <g
       transform="matrix(2,0,0,2,166.94456,138.8383)"
       id="g739"
       style="stroke-width:0.5">
      <g
         id="g737"
         transform="matrix(0.705556,0,0,0.705556,-65.696,-52.5488)"
         style="stroke-width:0.5">
        <g
           style="fill:#000000;fill-opacity:1;stroke-width:0.5"
           id="g723">
          <g
             id="g721"
             transform="translate(91.925003,81.962997)"
             style="stroke-width:0.5">
            <path
               style="stroke:none;stroke-width:0.5"
               d="m 1.578125,-7.125 c 0,-0.171875 0,-0.359375 -0.1875,-0.359375 -0.203125,0 -0.203125,0.1875 -0.203125,0.359375 v 9.265625 c 0,0.171875 0,0.359375 0.203125,0.359375 0.1875,0 0.1875,-0.1875 0.1875,-0.359375 z m 0,0"
               id="path719" />
          </g>
        </g>
        <g
           style="fill:#000000;fill-opacity:1;stroke-width:0.5"
           id="g729">
          <g
             id="g727"
             transform="translate(94.693001,81.962997)"
             style="stroke-width:0.5">
            <path
               style="stroke:none;stroke-width:0.5"
               d="m 2.828125,-6.234375 c 0,-0.203125 -0.140625,-0.359375 -0.359375,-0.359375 -0.28125,0 -0.546875,0.265625 -0.546875,0.53125 0,0.1875 0.140625,0.359375 0.375,0.359375 0.234375,0 0.53125,-0.234375 0.53125,-0.53125 z m -0.75,3.75 c 0.109375,-0.28125 0.109375,-0.3125 0.21875,-0.578125 0.078125,-0.203125 0.125,-0.34375 0.125,-0.53125 0,-0.4375 -0.3125,-0.8125 -0.8125,-0.8125 -0.9375,0 -1.3125,1.453125 -1.3125,1.53125 0,0.109375 0.09375,0.109375 0.109375,0.109375 0.109375,0 0.109375,-0.03125 0.15625,-0.1875 0.28125,-0.9375 0.671875,-1.234375 1.015625,-1.234375 0.078125,0 0.25,0 0.25,0.3125 0,0.21875 -0.078125,0.421875 -0.109375,0.53125 -0.078125,0.25 -0.53125,1.40625 -0.6875,1.84375 -0.109375,0.25 -0.234375,0.578125 -0.234375,0.796875 0,0.46875 0.34375,0.8125 0.8125,0.8125 0.9375,0 1.3125,-1.4375 1.3125,-1.53125 0,-0.109375 -0.09375,-0.109375 -0.125,-0.109375 -0.09375,0 -0.09375,0.03125 -0.140625,0.1875 -0.1875,0.625 -0.515625,1.234375 -1.015625,1.234375 -0.171875,0 -0.25,-0.09375 -0.25,-0.328125 0,-0.25 0.0625,-0.390625 0.296875,-1 z m 0,0"
               id="path725" />
          </g>
        </g>
        <g
           style="fill:#000000;fill-opacity:1;stroke-width:0.5"
           id="g735">
          <g
             id="g733"
             transform="translate(98.125,81.962997)"
             style="stroke-width:0.5">
            <path
               style="stroke:none;stroke-width:0.5"
               d="M 2.71875,-2.328125 C 2.765625,-2.4375 2.765625,-2.46875 2.765625,-2.5 c 0,-0.015625 0,-0.046875 -0.046875,-0.15625 L 0.984375,-7.25 c -0.0625,-0.171875 -0.125,-0.234375 -0.234375,-0.234375 -0.109375,0 -0.203125,0.09375 -0.203125,0.203125 0,0.03125 0,0.046875 0.046875,0.15625 L 2.359375,-2.5 0.59375,2.109375 C 0.546875,2.21875 0.546875,2.25 0.546875,2.296875 0.546875,2.40625 0.640625,2.5 0.75,2.5 0.875,2.5 0.921875,2.390625 0.953125,2.296875 Z m 0,0"
               id="path731" />
          </g>
        </g>
      </g>
    </g>
    <g
       transform="matrix(2,0,0,2,-5.9384192,139.22519)"
       id="g892"
       style="stroke-width:0.5">
      <g
         id="g890"
         transform="matrix(0.705556,0,0,0.705556,-65.696,-52.5488)"
         style="stroke-width:0.5">
        <g
           style="fill:#000000;fill-opacity:1;stroke-width:0.5"
           id="g26">
          <g
             id="use24"
             transform="translate(91.925003,81.962997)"
             style="stroke-width:0.5">
            <path
               style="stroke:none;stroke-width:0.5"
               d="m 1.578125,-7.125 c 0,-0.171875 0,-0.359375 -0.1875,-0.359375 -0.203125,0 -0.203125,0.1875 -0.203125,0.359375 v 9.265625 c 0,0.171875 0,0.359375 0.203125,0.359375 0.1875,0 0.1875,-0.1875 0.1875,-0.359375 z m 0,0"
               id="path45" />
          </g>
        </g>
        <g
           style="fill:#000000;fill-opacity:1;stroke-width:0.5"
           id="g30">
          <g
             id="use28"
             transform="translate(96.904305,81.962997)"
             style="stroke-width:0.5">
            <path
               style="stroke:none;stroke-width:0.5"
               d="m 6.5625,-2.296875 c 0.171875,0 0.359375,0 0.359375,-0.203125 0,-0.1875 -0.1875,-0.1875 -0.359375,-0.1875 H 1.171875 c -0.171875,0 -0.34375,0 -0.34375,0.1875 0,0.203125 0.171875,0.203125 0.34375,0.203125 z m 0,0"
               id="path49" />
          </g>
        </g>
        <g
           style="fill:#000000;fill-opacity:1;stroke-width:0.5"
           id="g34">
          <g
             id="use32"
             transform="translate(106.869,81.962997)"
             style="stroke-width:0.5">
            <path
               style="stroke:none;stroke-width:0.5"
               d="m 2.828125,-6.234375 c 0,-0.203125 -0.140625,-0.359375 -0.359375,-0.359375 -0.28125,0 -0.546875,0.265625 -0.546875,0.53125 0,0.1875 0.140625,0.359375 0.375,0.359375 0.234375,0 0.53125,-0.234375 0.53125,-0.53125 z m -0.75,3.75 c 0.109375,-0.28125 0.109375,-0.3125 0.21875,-0.578125 0.078125,-0.203125 0.125,-0.34375 0.125,-0.53125 0,-0.4375 -0.3125,-0.8125 -0.8125,-0.8125 -0.9375,0 -1.3125,1.453125 -1.3125,1.53125 0,0.109375 0.09375,0.109375 0.109375,0.109375 0.109375,0 0.109375,-0.03125 0.15625,-0.1875 0.28125,-0.9375 0.671875,-1.234375 1.015625,-1.234375 0.078125,0 0.25,0 0.25,0.3125 0,0.21875 -0.078125,0.421875 -0.109375,0.53125 -0.078125,0.25 -0.53125,1.40625 -0.6875,1.84375 -0.109375,0.25 -0.234375,0.578125 -0.234375,0.796875 0,0.46875 0.34375,0.8125 0.8125,0.8125 0.9375,0 1.3125,-1.4375 1.3125,-1.53125 0,-0.109375 -0.09375,-0.109375 -0.125,-0.109375 -0.09375,0 -0.09375,0.03125 -0.140625,0.1875 -0.1875,0.625 -0.515625,1.234375 -1.015625,1.234375 -0.171875,0 -0.25,-0.09375 -0.25,-0.328125 0,-0.25 0.0625,-0.390625 0.296875,-1 z m 0,0"
               id="path53" />
          </g>
        </g>
        <g
           style="fill:#000000;fill-opacity:1;stroke-width:0.5"
           id="g38">
          <g
             id="use36"
             transform="translate(110.301,81.962997)"
             style="stroke-width:0.5">
            <path
               style="stroke:none;stroke-width:0.5"
               d="M 2.71875,-2.328125 C 2.765625,-2.4375 2.765625,-2.46875 2.765625,-2.5 c 0,-0.015625 0,-0.046875 -0.046875,-0.15625 L 0.984375,-7.25 c -0.0625,-0.171875 -0.125,-0.234375 -0.234375,-0.234375 -0.109375,0 -0.203125,0.09375 -0.203125,0.203125 0,0.03125 0,0.046875 0.046875,0.15625 L 2.359375,-2.5 0.59375,2.109375 C 0.546875,2.21875 0.546875,2.25 0.546875,2.296875 0.546875,2.40625 0.640625,2.5 0.75,2.5 0.875,2.5 0.921875,2.390625 0.953125,2.296875 Z m 0,0"
               id="path57" />
          </g>
        </g>
      </g>
    </g>
    <path
       style="fill:none;fill-opacity:0.403084;stroke:#000000;stroke-width:0.8;stroke-linejoin:round;stroke-miterlimit:4;stroke-dasharray:none;stroke-dashoffset:0;stroke-opacity:1"
       id="path910-3"
       d="M 149.15308,145.62306 A 55.496986,13.284229 0 0 1 121.3705,157.13225 55.496986,13.284229 0 0 1 65.839465,157.11811 55.496986,13.284229 0 0 1 38.159229,145.5948" />
    <path
       style="fill:none;fill-opacity:0.403084;stroke:#000000;stroke-width:0.8;stroke-linejoin:round;stroke-miterlimit:4;stroke-dasharray:3.2, 6.39998;stroke-dashoffset:0;stroke-opacity:1"
       id="path910-3-7"
       d="m -38.159103,-145.72357 a 55.496986,13.284229 0 0 1 -27.78258,11.50919 55.496986,13.284229 0 0 1 -55.531027,-0.0141 55.496986,13.284229 0 0 1 -27.68024,-11.52331"
       transform="scale(-1)" />
    <g
       transform="matrix(2,0,0,2,79.630132,160.52088)"
       id="g2747"
       style="stroke-width:0.5">
      <g
         id="g2745"
         transform="matrix(0.705556,0,0,0.705556,-65.0125,-52.8476)"
         style="stroke-width:0.5">
        <g
           style="fill:#000000;fill-opacity:1;stroke-width:0.5"
           id="g20">
          <g
             id="g2736"
             transform="translate(92.458,81.823997)"
             style="stroke-width:0.5">
            <path
               style="stroke:none;stroke-width:0.5"
               d="M 2.5,-6.921875 1.15625,-5.5625 1.328125,-5.390625 2.5,-6.40625 3.640625,-5.390625 3.8125,-5.5625 Z m 0,0"
               id="path2734" />
          </g>
        </g>
        <g
           style="fill:#000000;fill-opacity:1;stroke-width:0.5"
           id="g2743">
          <g
             id="g2741"
             transform="translate(91.925003,81.962997)"
             style="stroke-width:0.5">
            <path
               style="stroke:none;stroke-width:0.5"
               d="M 3.453125,-2.453125 4.609375,-3.75 C 4.75,-3.890625 4.8125,-3.953125 5.625,-3.953125 v -0.46875 c -0.34375,0.015625 -0.859375,0.03125 -0.90625,0.03125 -0.25,0 -0.75,-0.03125 -1.03125,-0.03125 v 0.46875 c 0.140625,0 0.265625,0.015625 0.375,0.078125 -0.03125,0.0625 -0.03125,0.09375 -0.078125,0.125 L 3.15625,-2.8125 2.171875,-3.953125 h 0.40625 v -0.46875 c -0.265625,0 -0.890625,0.03125 -1.21875,0.03125 -0.3125,0 -0.765625,-0.03125 -1.09375,-0.03125 v 0.46875 h 0.71875 L 2.53125,-2.125 1.21875,-0.65625 c -0.15625,0.1875 -0.515625,0.1875 -1,0.1875 V 0 c 0.34375,-0.015625 0.875,-0.03125 0.921875,-0.03125 0.25,0 0.828125,0.015625 1.015625,0.03125 v -0.46875 c -0.171875,0 -0.359375,-0.046875 -0.359375,-0.109375 0,-0.015625 0,-0.015625 0.0625,-0.09375 l 0.96875,-1.09375 1.09375,1.296875 H 3.53125 V 0 c 0.265625,-0.015625 0.875,-0.03125 1.203125,-0.03125 0.3125,0 0.765625,0.015625 1.09375,0.03125 V -0.46875 H 5.125 Z m 0,0"
               id="path2739" />
          </g>
        </g>
      </g>
    </g>
    <g
       transform="matrix(2,0,0,2,151.80158,149.85149)"
       id="g2971"
       style="stroke-width:0.5">
      <g
         id="g2969"
         transform="matrix(0.705556,0,0,0.705556,-65.0125,-52.8476)"
         style="stroke-width:0.5">
        <g
           style="fill:#000000;fill-opacity:1;stroke-width:0.5"
           id="g2961">
          <g
             id="g2959"
             transform="translate(92.538002,81.823997)"
             style="stroke-width:0.5">
            <path
               style="stroke:none;stroke-width:0.5"
               d="M 2.5,-6.921875 1.15625,-5.5625 1.328125,-5.390625 2.5,-6.40625 3.640625,-5.390625 3.8125,-5.5625 Z m 0,0"
               id="path2957" />
          </g>
        </g>
        <g
           style="fill:#000000;fill-opacity:1;stroke-width:0.5"
           id="g2967">
          <g
             id="g2965"
             transform="translate(91.925003,81.962997)"
             style="stroke-width:0.5">
            <path
               style="stroke:none;stroke-width:0.5"
               d="m 5.046875,-3.75 c 0.0625,-0.140625 0.09375,-0.203125 0.734375,-0.203125 v -0.46875 C 5.546875,-4.40625 5.25,-4.390625 5,-4.390625 c -0.25,0 -0.703125,-0.03125 -0.90625,-0.03125 v 0.46875 c 0.015625,0 0.46875,0 0.46875,0.109375 0,0.015625 -0.046875,0.109375 -0.0625,0.125 L 3.359375,-1.265625 2.09375,-3.953125 H 2.625 v -0.46875 c -0.328125,0.015625 -1.21875,0.03125 -1.234375,0.03125 -0.28125,0 -0.71875,-0.03125 -1.125,-0.03125 v 0.46875 h 0.625 L 2.765625,0 2.53125,0.484375 C 2.3125,0.953125 2,1.640625 1.28125,1.640625 1.140625,1.640625 1.125,1.625 1.046875,1.59375 1.140625,1.5625 1.359375,1.421875 1.359375,1.0625 1.359375,0.734375 1.125,0.5 0.78125,0.5 0.515625,0.5 0.21875,0.6875 0.21875,1.078125 0.21875,1.578125 0.6875,2 1.28125,2 2.046875,2 2.625,1.375 2.90625,0.8125 Z m 0,0"
               id="path2963" />
          </g>
        </g>
      </g>
    </g>
    <g
       transform="matrix(2,0,0,2,98.019461,79.929698)"
       id="g3211"
       style="stroke-width:0.5">
      <g
         id="g3209"
         transform="matrix(0.705556,0,0,0.705556,-65.0787,-52.8476)"
         style="stroke-width:0.5">
        <g
           style="fill:#000000;fill-opacity:1;stroke-width:0.5"
           id="g3201">
          <g
             id="g3199"
             transform="translate(91.981003,81.823997)"
             style="stroke-width:0.5">
            <path
               style="stroke:none;stroke-width:0.5"
               d="M 2.5,-6.921875 1.15625,-5.5625 1.328125,-5.390625 2.5,-6.40625 3.640625,-5.390625 3.8125,-5.5625 Z m 0,0"
               id="path3197" />
          </g>
        </g>
        <g
           style="fill:#000000;fill-opacity:1;stroke-width:0.5"
           id="g3207">
          <g
             id="g3205"
             transform="translate(91.925003,81.962997)"
             style="stroke-width:0.5">
            <path
               style="stroke:none;stroke-width:0.5"
               d="M 4.46875,-4 C 4.5625,-4.109375 4.578125,-4.125 4.578125,-4.21875 4.578125,-4.421875 4.4375,-4.421875 4.25,-4.421875 H 0.59375 L 0.484375,-2.6875 h 0.46875 C 1,-3.703125 1.3125,-4.0625 2.34375,-4.0625 H 3.1875 l -2.78125,3.625 C 0.3125,-0.328125 0.3125,-0.3125 0.3125,-0.21875 0.3125,0 0.453125,0 0.640625,0 h 3.78125 l 0.1875,-2.015625 H 4.140625 C 4.046875,-1 3.890625,-0.40625 2.578125,-0.40625 H 1.71875 Z m 0,0"
               id="path3203" />
          </g>
        </g>
      </g>
    </g>
  </g>
</svg>
